<svg width="45.28" height="42.52" xmlns="http://www.w3.org/2000/svg">
 <defs>
  <style>.cls-1{fill:#ffffff;}</style>
 </defs>
 <title>资源 90</title>
 <g>
  <title>background</title>
  <rect x="-1" y="-1" width="47.28" height="44.52" id="canvas_background" fill="none"/>
 </g>
 <g>
  <title>Layer 1</title>
  <g id="图层_2">
   <g id="图层_1-2">
    <path class="cls-1" d="m43,17.69a20.5,20.5 0 0 0 -40.61,0a2.85,2.85 0 1 0 1.42,0.1a19.07,19.07 0 0 1 37.76,0a2.86,2.86 0 0 0 0,5.42a19.16,19.16 0 0 1 -14.42,15.79a2.22,2.22 0 0 0 -1.86,-1l-5.29,0a2.24,2.24 0 1 0 0,4.47l5.3,0a2.25,2.25 0 0 0 2.24,-2.12a20.54,20.54 0 0 0 15.46,-17.05a2.85,2.85 0 0 0 0,-5.61zm-5.38,2.81a15,15 0 1 0 -15,15a15,15 0 0 0 15,-15z" id="svg_1"/>
   </g>
  </g>
 </g>
</svg>