<svg xmlns="http://www.w3.org/2000/svg" xmlns:xlink="http://www.w3.org/1999/xlink" viewBox="0 0 59.43 59.43"><defs><style>.cls-1{fill:none;}.cls-2{clip-path:url(#clip-path);}.cls-3{fill:#040000;}</style><clipPath id="clip-path"><path class="cls-1" d="M42.68,30,31.42,38.34a1.15,1.15,0,0,1-.72.24,1.19,1.19,0,0,1-1.18-1.09V33.35H26.39a14.59,14.59,0,0,0-10,4,.48.48,0,0,1-.3.11.49.49,0,0,1-.5-.49s0-.05,0-.08a14.83,14.83,0,0,1,14-11.63V21.07A1.19,1.19,0,0,1,30.7,20a1.15,1.15,0,0,1,.7.23l11.29,8.4a.94.94,0,0,1,.31.67A.88.88,0,0,1,42.68,30Zm-13-21.49A21.26,21.26,0,1,0,51,29.72,21.25,21.25,0,0,0,29.72,8.46Z"/></clipPath></defs><title>资源 138</title><g id="图层_2" data-name="图层 2"><g id="图层_1-2" data-name="图层 1"><g class="cls-2"><rect class="cls-3" width="59.43" height="59.43"/></g></g></g></svg>