<svg xmlns="http://www.w3.org/2000/svg" xmlns:xlink="http://www.w3.org/1999/xlink" viewBox="0 0 43.05 43.05"><defs><style>.cls-1{fill:none;}.cls-2{clip-path:url(#clip-path);}.cls-3{clip-path:url(#clip-path-2);}.cls-4{fill:#040000;}</style><clipPath id="clip-path" transform="translate(574.27 -146.46)"><path class="cls-1" d="M-543.34,173.62a2.67,2.67,0,0,1,0,3.77,2.65,2.65,0,0,1-3.77,0l-5.64-5.66-5.63,5.66a2.65,2.65,0,0,1-3.77,0,2.65,2.65,0,0,1,0-3.77l5.66-5.63-5.66-5.64a2.65,2.65,0,0,1,0-3.77,2.67,2.67,0,0,1,3.77,0l5.63,5.66,5.64-5.66a2.67,2.67,0,0,1,3.77,0,2.67,2.67,0,0,1,0,3.77L-549,168Zm-9.41-26.89A21.26,21.26,0,0,0-574,168a21.26,21.26,0,0,0,21.26,21.26A21.26,21.26,0,0,0-531.49,168,21.26,21.26,0,0,0-552.75,146.73Z"/></clipPath><clipPath id="clip-path-2" transform="translate(574.27 -146.46)"><rect class="cls-1" x="-4414.27" y="-6207.92" width="7849.79" height="20393.1"/></clipPath></defs><title>资源 127</title><g id="图层_2" data-name="图层 2"><g id="图层_1-2" data-name="图层 1"><g class="cls-2"><g class="cls-3"><rect class="cls-4" width="43.05" height="43.05"/></g></g></g></g></svg>