<svg xmlns="http://www.w3.org/2000/svg" xmlns:xlink="http://www.w3.org/1999/xlink" viewBox="0 0 42.24 42.24"><defs><style>.cls-1{fill:none;}.cls-2{clip-path:url(#clip-path);}.cls-3{clip-path:url(#clip-path-2);}.cls-4{fill:#040000;}</style><clipPath id="clip-path" transform="translate(-123.56 -8.59)"><path class="cls-1" d="M153,27.19a20.37,20.37,0,0,1-3.92,3.95,7.51,7.51,0,0,0-1.95,2.1,7.1,7.1,0,0,0-.33,2.82h-4.46V34.88a7.88,7.88,0,0,1,.72-3.55,10.9,10.9,0,0,1,2.86-3A21.47,21.47,0,0,0,148.48,26a3.05,3.05,0,0,0,.64-1.88A3.17,3.17,0,0,0,148,21.67a4.48,4.48,0,0,0-3-1,4.74,4.74,0,0,0-3,1.07A6.45,6.45,0,0,0,140.16,25c-.15.91-4.56,1.3-4.53-.55a7.61,7.61,0,0,1,2.68-5.31,9.39,9.39,0,0,1,6.37-2.34A9.84,9.84,0,0,1,151.43,19a6.72,6.72,0,0,1,2.37,5.17A5.67,5.67,0,0,1,153,27.19Zm-8.3,17.41a3,3,0,1,1,3-3A3,3,0,0,1,144.68,44.6Zm0-36.14a21.26,21.26,0,1,0,21.26,21.26A21.26,21.26,0,0,0,144.68,8.46Z"/></clipPath><clipPath id="clip-path-2" transform="translate(-123.56 -8.59)"><rect class="cls-1" x="-4185.24" y="-2719.89" width="6803.15" height="6523.23"/></clipPath></defs><title>资源 152</title><g id="图层_2" data-name="图层 2"><g id="图层_1-2" data-name="图层 1"><g class="cls-2"><g class="cls-3"><rect class="cls-4" width="42.24" height="42.24"/></g></g></g></g></svg>